<?xml version="1.0" encoding="UTF-8"?>
<svg width="120px" height="120px" viewBox="0 0 120 120" version="1.1" xmlns="http://www.w3.org/2000/svg" xmlns:xlink="http://www.w3.org/1999/xlink">
    <title>Group 31</title>
    <defs>
        <linearGradient x1="50%" y1="100%" x2="50%" y2="-381.460623%" id="linearGradient-1">
            <stop stop-color="#F5F5F7" offset="0%"></stop>
            <stop stop-color="#FF5043" stop-opacity="0.496421547" offset="100%"></stop>
        </linearGradient>
    </defs>
    <g id="Page-1" stroke="none" stroke-width="1" fill="none" fill-rule="evenodd">
        <g id="Apple-TV" transform="translate(-329.000000, -3558.000000)">
            <g id="Group-31" transform="translate(329.000000, 3558.000000)">
                <circle id="Oval" fill="url(#linearGradient-1)" opacity="0.5" cx="60" cy="60" r="60"></circle>
                <g id="Group-29" transform="translate(20.000000, 14.000000)">
                    <g id="Group-21" transform="translate(0.000000, 0.000000)">
                        <path d="M13.4736691,0 L0,6.87693081 L0,22.7315181 L13.4736691,29.6084489 L20.3563474,26.0967023 L28.5667074,31.4620303 L21.659602,34.9867088 L21.659602,56.4379625 L28.5207271,59.9396508 L19.6953804,64.8236224 L13.4736691,61.6495438 L0,68.5264746 L0,84.3810619 L13.4736691,91.2579927 L26.9487751,84.3810619 L26.9487751,68.5264746 L21.7429413,65.8696745 L30.5697248,60.9842661 L39.9022918,65.7475393 L49.2966449,60.9540915 L57.8748473,66.550758 L53.0368561,69.0193261 L53.0368561,84.8753502 L66.5119621,91.7508442 L79.987068,84.8753502 L79.987068,69.0193261 L66.5119621,62.1438322 L59.8304476,65.552123 L51.253682,59.9554566 L58.1464186,56.4379625 L58.1464186,34.9867088 L51.154537,31.4189238 L60.0474172,26.4975932 L66.524894,29.8024283 L80,22.9254975 L80,7.07091027 L66.524894,0.193979453 L53.0512249,7.07091027 L53.0512249,22.9254975 L57.9998563,25.4515411 L49.1069761,30.3728716 L39.9022918,25.6756951 L30.5237445,30.4633954 L22.3119477,25.0980674 L26.9487751,22.7315181 L26.9487751,6.87693081 L13.4736691,0 Z M3.0505065,7.46030606 L13.4736691,2.13952152 L23.8982686,7.46030606 L13.4736691,12.7810906 L3.0505065,7.46030606 Z M56.1017314,7.65428551 L66.524894,2.33350097 L76.9494935,7.65428551 L66.524894,12.97507 L56.1017314,7.65428551 Z M14.4263237,17.9955457 L14.4263237,14.434945 L25.040592,9.01788922 L25.040592,20.4224441 L21.5949422,18.252748 L20.5790646,19.8649328 L24.067821,22.0619297 L13.4736691,27.4689274 L2.87951721,22.0619297 L6.36827358,19.8649328 L5.35239601,18.252748 L1.90530929,20.4224441 L1.90530929,9.01788922 L12.5210144,14.434945 L12.5210144,17.9955457 L14.4263237,17.9955457 Z M67.4775487,18.1895251 L67.4775487,14.6289245 L78.0918169,9.21186867 L78.0918169,20.6164236 L74.6461671,18.4467275 L73.6302895,20.0589123 L77.1190459,22.2559092 L66.524894,27.6629068 L55.9307422,22.2559092 L59.4194985,20.0589123 L58.4050578,18.4467275 L54.9565342,20.6164236 L54.9565342,9.21186867 L65.5708025,14.6289245 L65.5708025,18.1895251 L67.4775487,18.1895251 Z M24.7086716,35.5715209 L39.9022918,27.8166535 L55.0959121,35.5715209 L39.9022918,43.3249515 L24.7086716,35.5715209 Z M40.8563834,50.118543 L40.8563834,44.9788059 L56.2396724,37.1276672 L56.2396724,54.1260148 L50.9231985,50.77951 L49.9087578,52.3931317 L55.2654645,55.7669373 L39.9022918,63.6065809 L24.5391192,55.7669373 L29.8972627,52.3945686 L28.8813852,50.77951 L23.5663482,54.1260148 L23.5663482,37.1276672 L38.9496372,44.9788059 L38.9496372,50.118543 L40.8563834,50.118543 Z M3.0505065,69.1098498 L13.4736691,63.7890653 L23.8982686,69.1098498 L13.4736691,74.4291975 L3.0505065,69.1098498 Z M56.0873626,69.6027013 L66.5119621,64.2833537 L76.9365615,69.6027013 L66.5119621,74.922049 L56.0873626,69.6027013 Z M14.4263237,79.6436526 L14.4263237,76.0844888 L25.040592,70.6659961 L25.040592,82.0719879 L21.5949422,79.9008549 L20.5790646,81.5144766 L24.067821,83.7114735 L13.4736691,89.1184712 L2.87951721,83.7114735 L6.36827358,81.5144766 L5.35239601,79.9008549 L1.90530929,82.0719879 L1.90530929,70.6659961 L12.5210144,76.0844888 L12.5210144,79.6436526 L14.4263237,79.6436526 Z M67.4646167,80.1379409 L67.4646167,76.5773403 L78.078885,71.1588476 L78.078885,82.5634025 L74.6332351,80.3937064 L73.6159207,82.008765 L77.1061139,84.204325 L66.5119621,89.6113227 L55.9178102,84.204325 L59.4065666,82.008765 L58.390689,80.3937064 L54.9436023,82.5634025 L54.9436023,71.1588476 L65.5578705,76.5773403 L65.5578705,80.1379409 L67.4646167,80.1379409 Z" id="Fill-1" fill="#23293C"></path>
                        <polygon id="Fill-2" fill="#FF5043" points="39.9267189 27.8169409 55.1203391 35.5718083 39.9267189 43.3252389 24.7330986 35.5718083"></polygon>
                        <polygon id="Fill-3" fill="#FF5043" points="67.7920828 46.3612328 69.6988289 46.3612328 69.6988289 44.4544867 67.7920828 44.4544867"></polygon>
                        <polygon id="Fill-4" fill="#FF5043" points="67.7920828 42.5477405 69.6988289 42.5477405 69.6988289 40.6409943 67.7920828 40.6409943"></polygon>
                        <polygon id="Fill-5" fill="#FF5043" points="67.7920828 50.1747252 69.6988289 50.1747252 69.6988289 48.267979 67.7920828 48.267979"></polygon>
                        <polygon id="Fill-6" fill="#FF5043" points="67.7920828 38.7342482 69.6988289 38.7342482 69.6988289 36.827502 67.7920828 36.827502"></polygon>
                        <polygon id="Fill-7" fill="#FF5043" points="67.7920828 53.9867807 69.6988289 53.9867807 69.6988289 52.0800345 67.7920828 52.0800345"></polygon>
                        <polygon id="Fill-8" fill="#FF5043" points="10.4359509 42.5477405 12.342697 42.5477405 12.342697 40.6409943 10.4359509 40.6409943"></polygon>
                        <polygon id="Fill-9" fill="#FF5043" points="10.4359509 50.1747252 12.342697 50.1747252 12.342697 48.267979 10.4359509 48.267979"></polygon>
                        <polygon id="Fill-10" fill="#FF5043" points="10.4359509 46.3612328 12.342697 46.3612328 12.342697 44.4544867 10.4359509 44.4544867"></polygon>
                        <polygon id="Fill-11" fill="#FF5043" points="10.4359509 53.9867807 12.342697 53.9867807 12.342697 52.0800345 10.4359509 52.0800345"></polygon>
                        <polygon id="Fill-12" fill="#FF5043" points="10.4359509 38.7342482 12.342697 38.7342482 12.342697 36.827502 10.4359509 36.827502"></polygon>
                        <polygon id="Fill-13" fill="#FF5043" points="40.7211725 12.5613909 42.6279187 12.5613909 42.6279187 10.6546447 40.7211725 10.6546447"></polygon>
                        <polygon id="Fill-14" fill="#FF5043" points="33.0941878 12.5613909 35.000934 12.5613909 35.000934 10.6546447 33.0941878 10.6546447"></polygon>
                        <polygon id="Fill-15" fill="#FF5043" points="44.5346648 12.5613909 46.441411 12.5613909 46.441411 10.6546447 44.5346648 10.6546447"></polygon>
                        <polygon id="Fill-16" fill="#FF5043" points="36.9076801 12.5613909 38.8144263 12.5613909 38.8144263 10.6546447 36.9076801 10.6546447"></polygon>
                        <polygon id="Fill-17" fill="#FF5043" points="33.0941878 79.5733889 35.000934 79.5733889 35.000934 77.6666427 33.0941878 77.6666427"></polygon>
                        <polygon id="Fill-18" fill="#FF5043" points="36.9076801 79.5733889 38.8144263 79.5733889 38.8144263 77.6666427 36.9076801 77.6666427"></polygon>
                        <polygon id="Fill-19" fill="#FF5043" points="44.5346648 79.5733889 46.441411 79.5733889 46.441411 77.6666427 44.5346648 77.6666427"></polygon>
                        <polygon id="Fill-20" fill="#FF5043" points="40.7211725 79.5733889 42.6279187 79.5733889 42.6279187 77.6666427 40.7211725 77.6666427"></polygon>
                    </g>
                </g>
            </g>
        </g>
    </g>
</svg>