<svg id="Layer_1" data-name="Layer 1" xmlns="http://www.w3.org/2000/svg" viewBox="0 0 792 612"><defs><style>.cls-1{fill:#232a3d;}.cls-2{fill:#f05448;}.cls-3{fill:#fff;}</style></defs><rect class="cls-1" x="26.26" y="22.82" width="739.47" height="564.89"/><path class="cls-2" d="M209.48,290.28q10.47,0,17.29,6.9t6.81,17.41A23.78,23.78,0,0,1,226.77,332q-6.81,6.94-17.29,6.94a22.67,22.67,0,0,1-16.39-6.41l-1.21,5.28h-7.21V274.82h9.51v20.87A23.08,23.08,0,0,1,209.48,290.28ZM197.85,325.4a15.68,15.68,0,1,0-4.34-10.81A14.68,14.68,0,0,0,197.85,325.4Z"/><path class="cls-2" d="M286.05,314.72a26.54,26.54,0,0,1-.21,3.1H248.21A13.65,13.65,0,0,0,262.41,330a14.94,14.94,0,0,0,7.36-1.8,13.12,13.12,0,0,0,5.09-5h10.06a24,24,0,0,1-8.76,11.53,23.44,23.44,0,0,1-13.75,4.19,22.79,22.79,0,0,1-17-7,23.77,23.77,0,0,1-6.83-17.33,25,25,0,0,1,3.1-12.4,22.66,22.66,0,0,1,8.55-8.74,24.88,24.88,0,0,1,24.52.12,22.3,22.3,0,0,1,8.36,8.85A26.08,26.08,0,0,1,286.05,314.72Zm-23.64-15.84a13.93,13.93,0,0,0-9.05,3,14.18,14.18,0,0,0-4.9,8.22h28a14.61,14.61,0,0,0-5.05-8.26A14.1,14.1,0,0,0,262.41,298.88Z"/><path class="cls-2" d="M316.84,329.14a7.83,7.83,0,0,1-8.68-8.64V299.59h8.28v-1.84l-16.13-17.14h-1.64v10.81H284.89v8.17H298.6v21.67q0,7.67,4.4,12.09t12,4.42h7.09v-8.63Z"/><path class="cls-2" d="M365.57,291.37l7.34.05v46.31h-7.67l-.93-5.62a22.45,22.45,0,0,1-7.5,5,25.38,25.38,0,0,1-21.62-1.39,22.67,22.67,0,0,1-8.68-8.75,26.17,26.17,0,0,1,0-24.86,22.65,22.65,0,0,1,8.68-8.69,25.49,25.49,0,0,1,21.71-1.34,22,22,0,0,1,7.54,5.11Zm-28.2,34.06a15.75,15.75,0,0,0,21.69,0,15.9,15.9,0,0,0,0-21.73,15.35,15.35,0,0,0-21.69,21.73Z"/><path class="cls-3" d="M405.85,338.73a24.44,24.44,0,0,1-9.47-1.84,23.05,23.05,0,0,1-7.63-5.05,23.48,23.48,0,0,1-5-7.69,25.86,25.86,0,0,1,0-19.16,23.39,23.39,0,0,1,5-7.67,23,23,0,0,1,7.63-5,24.58,24.58,0,0,1,9.49-1.85,23.22,23.22,0,0,1,14,4.34,21.81,21.81,0,0,1,8.19,11.63h-5.78a17,17,0,0,0-6.54-7.57,18.14,18.14,0,0,0-9.89-2.74,17.24,17.24,0,0,0-12.87,5.3,19.4,19.4,0,0,0,0,26.36,17.2,17.2,0,0,0,12.84,5.3,17.92,17.92,0,0,0,9.83-2.76,17.58,17.58,0,0,0,6.6-7.76h5.91a22.07,22.07,0,0,1-8.32,11.8A23.3,23.3,0,0,1,405.85,338.73Z"/><path class="cls-3" d="M457.57,291.21h4.06v5.53h-4.52q-6.63,0-10.42,4.23t-3.79,11.32v25.48h-5.83V291.42h4.2l1,8Q447.34,291.21,457.57,291.21Z"/><path class="cls-3" d="M506.57,291.42h4.69v46.35H506.4l-.67-8.3a22.35,22.35,0,0,1-8.15,6.81,25.44,25.44,0,0,1-20.39.61,22.86,22.86,0,0,1-7.61-5.05,23.38,23.38,0,0,1-5-7.69,25.26,25.26,0,0,1-1.82-9.56,23.5,23.5,0,0,1,6.83-17.24,23,23,0,0,1,17.06-6.9,24.37,24.37,0,0,1,11,2.47,22.32,22.32,0,0,1,8.19,6.88Zm-19.49,41.65a17.55,17.55,0,0,0,13.07-5.23,19.58,19.58,0,0,0,0-26.49,18.93,18.93,0,0,0-26.19,0,19.25,19.25,0,0,0,0,26.4A17.71,17.71,0,0,0,487.08,333.07Z"/><path class="cls-3" d="M575.09,332.36h5.7v5.41h-6.33q-7.17,0-11.29-4.13T559,322.35V296.61H535.61v41.16h-5.82V296.61h-9.43v-4.94h9.43v-3.73q0-7.71,3.51-11.28t11.36-3.56h5.83v4.78h-4.78q-5.61,0-7.94,2.3t-2.33,7.88v3.61H559V278h5.87v13.67h15.67v4.94H564.91v25.44q0,4.9,2.64,7.61T575.09,332.36Z"/><path class="cls-3" d="M607.33,300.37a9.87,9.87,0,0,1-3,7.2,10.14,10.14,0,0,1-14.37,0,9.87,9.87,0,0,1-3-7.21,10.15,10.15,0,0,1,20.3,0Zm-1.66,0a8.09,8.09,0,0,0-2.47-6,8.57,8.57,0,0,0-12,0,8.07,8.07,0,0,0-2.49,6,8.49,8.49,0,1,0,17,0Zm-11.78-4.46a3.38,3.38,0,0,1,2.45-1h4.25v10.65h-1.71v-4.07h-2.06l-2.38,4.07h-1.76l2.48-4.23a3,3,0,0,1-1.63-1.11,3.12,3.12,0,0,1-.61-1.94A3.23,3.23,0,0,1,593.89,295.91Zm2.56.61a1.93,1.93,0,0,0-1.38.5,1.66,1.66,0,0,0-.52,1.27,1.58,1.58,0,0,0,.52,1.24,2,2,0,0,0,1.38.47h2.43v-3.48Z"/></svg>