<?xml version="1.0" encoding="UTF-8"?>
<svg width="120px" height="120px" viewBox="0 0 120 120" version="1.1" xmlns="http://www.w3.org/2000/svg" xmlns:xlink="http://www.w3.org/1999/xlink">
    <title>Group 38</title>
    <defs>
        <linearGradient x1="50%" y1="100%" x2="50%" y2="-381.460623%" id="linearGradient-1">
            <stop stop-color="#F5F5F7" offset="0%"></stop>
            <stop stop-color="#FF5043" stop-opacity="0.496421547" offset="100%"></stop>
        </linearGradient>
        <polygon id="path-2" points="0 0 80 0 80 60.9868671 0 60.9868671"></polygon>
    </defs>
    <g id="Page-1" stroke="none" stroke-width="1" fill="none" fill-rule="evenodd">
        <g id="Group-38">
            <circle id="Oval-Copy-8" fill="url(#linearGradient-1)" opacity="0.5" cx="60" cy="60" r="60"></circle>
            <g id="Group-8" transform="translate(19.000000, 30.000000)">
                <g id="Group-3">
                    <mask id="mask-3" fill="white">
                        <use xlink:href="#path-2"></use>
                    </mask>
                    <g id="Clip-2"></g>
                    <path d="M77.419925,40.251645 L2.58034695,40.251645 L2.58034695,3.65911686 C2.58170645,2.9861602 3.15813802,2.43963783 3.87052042,2.43963783 L76.1297515,2.43963783 C76.8421339,2.43963783 77.4185654,2.9861602 77.419925,3.65911686 L77.419925,40.251645 Z M77.419925,45.1309207 C77.4185654,45.8038773 76.8421339,46.3490402 76.1297515,46.3503997 L3.87052042,46.3503997 C3.15813802,46.3490402 2.58170645,45.8038773 2.58034695,45.1309207 L2.58034695,42.6906031 L77.419925,42.6906031 L77.419925,45.1309207 Z M31.38833,54.8881125 L33.2304639,48.7893578 L46.769808,48.7893578 L48.6119419,54.8881125 L31.38833,54.8881125 Z M24.516015,58.5479091 L55.4842569,58.5479091 L55.4842569,57.32843 L24.516015,57.32843 L24.516015,58.5479091 Z M76.1297515,-0.000679754201 L3.87052042,-0.000679754201 C1.73337321,0.0020392626 0.0027190168,1.63888738 0,3.65911686 L0,45.1309207 C0.0027190168,47.1511501 1.73337321,48.7866388 3.87052042,48.7893578 L30.5467943,48.7893578 L28.7046604,54.8881125 L23.2258415,54.8881125 C22.5134591,54.8881125 21.9356681,55.4346348 21.9356681,56.108951 L21.9356681,58.5479091 L11.6129208,58.5479091 C10.9005384,58.5479091 10.3227473,59.0944315 10.3227473,59.7673881 C10.3227473,60.4417043 10.9005384,60.9868671 11.6129208,60.9868671 L68.3873511,60.9868671 C69.0997335,60.9868671 69.6775246,60.4417043 69.6775246,59.7673881 C69.6775246,59.0944315 69.0997335,58.5479091 68.3873511,58.5479091 L58.0646038,58.5479091 L58.0646038,56.108951 C58.0646038,55.4346348 57.4868128,54.8881125 56.7744304,54.8881125 L51.2956115,54.8881125 L49.4534776,48.7893578 L76.1297515,48.7893578 C78.2668987,48.7866388 79.9975529,47.1511501 80.0002719,45.1309207 L80.0002719,3.65911686 C79.9975529,1.63888738 78.2668987,0.0020392626 76.1297515,-0.000679754201 L76.1297515,-0.000679754201 Z" id="Fill-1" fill="#000000" mask="url(#mask-3)"></path>
                </g>
                <path d="M59.3551852,26.8343847 C58.6428028,26.8343847 58.0650117,26.2878623 58.0650117,25.6149057 C58.0650117,24.9405895 58.6428028,24.3954266 59.3551852,24.3954266 C60.0675676,24.3954266 60.6453586,24.9405895 60.6453586,25.6149057 C60.6439991,26.2878623 60.0675676,26.8330252 59.3551852,26.8343847 L59.3551852,26.8343847 Z M39.999864,23.0481538 L23.6966393,15.8563543 L39.999864,8.6645549 L56.3030888,15.8563543 L39.999864,23.0481538 Z M50.3226113,32.9331394 L29.6771168,32.9331394 L29.6771168,21.1869868 L39.4547012,25.5007069 C39.8000163,25.6529719 40.1997118,25.6529719 40.5450269,25.5007069 L50.3226113,21.1869868 L50.3226113,32.9331394 Z M60.6453586,22.1658328 L60.6453586,15.8563543 C60.6453586,15.3818859 60.3544238,14.9509217 59.900348,14.751074 L40.5450269,6.21336125 C40.1997118,6.0597368 39.8000163,6.0597368 39.4547012,6.21336125 L20.0993801,14.751074 C19.4536136,15.0365708 19.1749144,15.7611888 19.4753657,16.371608 C19.604519,16.6326336 19.8247594,16.8406384 20.0993801,16.9616347 L27.0967698,20.0477187 L27.0967698,34.1526184 C27.0967698,34.8269346 27.6745609,35.3720974 28.3869433,35.3720974 L51.6127848,35.3720974 C52.3251672,35.3720974 52.9029583,34.8269346 52.9029583,34.1526184 L52.9029583,20.0477187 L58.0650117,17.7719017 L58.0650117,22.1658328 C56.0488607,22.8387895 54.9925227,24.9297134 55.7049051,26.8357442 C56.418647,28.7404155 58.6305672,29.7396541 60.6453586,29.065338 C62.6615096,28.3923813 63.7178476,26.3014574 63.0054652,24.3954266 C62.6152863,23.3540432 61.74792,22.5342596 60.6453586,22.1658328 L60.6453586,22.1658328 Z" id="Fill-4" fill="#000000"></path>
                <path d="M50.309696,32.9474142 L29.6642014,32.9474142 L29.6642014,21.2012616 L39.4417859,25.5149818 C39.787101,25.6672467 40.1867965,25.6672467 40.5321116,25.5149818 L50.309696,21.2012616 L50.309696,32.9474142 Z" id="Fill-6" fill="#FF5043"></path>
            </g>
        </g>
    </g>
</svg>