<?xml version="1.0" encoding="UTF-8"?>
<svg width="120px" height="120px" viewBox="0 0 120 120" version="1.1" xmlns="http://www.w3.org/2000/svg" xmlns:xlink="http://www.w3.org/1999/xlink">
    <title>Group 36</title>
    <defs>
        <linearGradient x1="50%" y1="100%" x2="50%" y2="-381.460623%" id="linearGradient-1">
            <stop stop-color="#F5F5F7" offset="0%"></stop>
            <stop stop-color="#FF5043" stop-opacity="0.496421547" offset="100%"></stop>
        </linearGradient>
        <polygon id="path-2" points="0 0 79.9996816 0 79.9996816 79.4835937 0 79.4835937"></polygon>
        <polygon id="path-4" points="0 79.4842304 80 79.4842304 80 0 0 0"></polygon>
    </defs>
    <g id="Page-1" stroke="none" stroke-width="1" fill="none" fill-rule="evenodd">
        <g id="Group-36">
            <circle id="Oval-Copy-7" fill="url(#linearGradient-1)" opacity="0.5" cx="60" cy="60" r="60"></circle>
            <g id="Group-12" transform="translate(22.000000, 20.000000)">
                <path d="M40.0001592,30.7097801 C34.4524525,30.7097801 29.8073426,26.1936126 29.8073426,20.5169635 C29.8073426,14.8387225 34.4524525,10.322555 40.0001592,10.322555 C45.5478659,10.322555 50.1929758,14.9676649 50.1929758,20.5169635 C50.1929758,26.0646702 45.5478659,30.7097801 40.0001592,30.7097801 M40.0001592,7.74211521 C32.9035519,7.74211521 27.2253109,13.5477067 27.2253109,20.5153716 C27.2253109,27.6135708 33.0324943,33.2902199 40.0001592,33.2902199 C47.0967665,33.2902199 52.7750075,27.6135708 52.7750075,20.5153716 C52.7750075,13.4187643 46.9678241,7.74211521 40.0001592,7.74211521" id="Fill-1" fill="#000000"></path>
                <g id="Group-5" transform="translate(0.000000, 0.000637)">
                    <mask id="mask-3" fill="white">
                        <use xlink:href="#path-2"></use>
                    </mask>
                    <g id="Clip-4"></g>
                    <path d="M63.2260273,69.2898219 L75.2256293,69.2898219 L76.7745299,76.9021988 L64.128624,76.9021988 L63.2260273,69.2898219 Z M60.6455875,48.644712 L70.9673465,48.644712 L74.7098597,66.7093822 L62.8392001,66.7093822 L60.6455875,48.644712 Z M3.09748284,76.9021988 L7.35417371,56.5149736 L33.2906974,56.5149736 L32.9038703,69.2898219 L60.6455875,69.2898219 L61.5481843,76.9021988 L3.09748284,76.9021988 Z M9.03201671,48.644712 L21.9358074,48.644712 L21.2910954,53.9345339 L7.87153517,53.9345339 L9.03201671,48.644712 Z M24.5162471,48.644712 L35.0974828,48.644712 C37.2910954,51.3540941 38.8384041,53.1608795 39.0962889,53.2898219 L40.0004776,54.3229529 L40.9030743,53.2898219 C41.1609591,53.0319371 42.7098597,51.2251517 44.9034723,48.644712 L58.0651477,48.644712 L60.2587603,66.7093822 L35.48431,66.7093822 L35.8711372,53.9345339 L23.8715352,53.9345339 L24.5162471,48.644712 Z M22.0647498,20.5161675 C22.0647498,10.5796438 30.0639538,2.58043976 40.0004776,2.58043976 C49.9354094,2.58043976 57.9362054,10.5796438 57.9362054,20.5161675 C57.9362054,29.1600836 43.8703413,46.1932146 40.0004776,50.5804398 C36.129022,46.1932146 22.0647498,29.1600836 22.0647498,20.5161675 L22.0647498,20.5161675 Z M73.0320167,46.1932146 L46.9681425,46.1932146 C52.773734,38.8387225 60.5166451,27.6127748 60.5166451,20.5161675 C60.5166451,9.16127748 51.3553676,0 40.0004776,0 C28.6455875,0 19.48431,9.16127748 19.48431,20.5161675 C19.48431,27.6127748 27.2256293,38.8387225 33.0328127,46.1932146 L6.96734653,46.1932146 L-0.000318376281,79.4842304 L79.9996816,79.4842304 L73.0320167,46.1932146 Z" id="Fill-3" fill="#000000" mask="url(#mask-3)"></path>
                </g>
                <polygon id="Fill-6" fill="#FF5043" points="3.10082579 76.8996518 7.35910855 56.5124266 33.2940404 56.5124266 32.9072132 69.2872749 60.6489305 69.2872749 61.5531191 76.8996518"></polygon>
                <mask id="mask-5" fill="white">
                    <use xlink:href="#path-4"></use>
                </mask>
                <g id="Clip-9"></g>
                <polygon id="Fill-8" fill="#FF5043" mask="url(#mask-5)" points="38.7097801 21.8055915 41.2902199 21.8055915 41.2902199 19.2251517 38.7097801 19.2251517"></polygon>
                <polygon id="Fill-10" fill="#FF5043" mask="url(#mask-5)" points="43.8706596 21.8055915 46.4510994 21.8055915 46.4510994 19.2251517 43.8706596 19.2251517"></polygon>
                <polygon id="Fill-11" fill="#FF5043" mask="url(#mask-5)" points="33.5489006 21.8055915 36.1293404 21.8055915 36.1293404 19.2251517 33.5489006 19.2251517"></polygon>
            </g>
        </g>
    </g>
</svg>