<?xml version="1.0" encoding="UTF-8"?>
<svg width="180px" height="28px" viewBox="0 0 180 28" version="1.1" xmlns="http://www.w3.org/2000/svg" xmlns:xlink="http://www.w3.org/1999/xlink">
    <title>Group 23</title>
    <defs>
        <polygon id="path-1" points="0 0 21 0 21 27 0 27"></polygon>
        <polygon id="path-3" points="0 0 20 0 20 21 0 21"></polygon>
        <polygon id="path-5" points="0 0 26 0 26 28 0 28"></polygon>
        <polygon id="path-7" points="0 0 9 0 9 9 0 9"></polygon>
    </defs>
    <g id="Page-1" stroke="none" stroke-width="1" fill="none" fill-rule="evenodd">
        <g id="Apple-TV" transform="translate(-870.000000, -26.000000)">
            <g id="Group-23" transform="translate(870.000000, 26.000000)">
                <g id="Group-3" transform="translate(0.000000, 1.000000)">
                    <mask id="mask-2" fill="white">
                        <use xlink:href="#path-1"></use>
                    </mask>
                    <g id="Clip-2"></g>
                    <path d="M5.65951052,21.314093 C6.90124517,22.5380965 8.45770717,23.1498876 10.3293259,23.1498876 C12.2005152,23.1498876 13.7509661,22.5444166 14.9811078,21.3313681 C16.2103907,20.1191622 16.8252469,18.5943194 16.8252469,16.7581035 C16.8252469,14.9214662 16.2103907,13.3940953 14.9811078,12.1755692 C13.7509661,10.9570432 12.2005152,10.3477802 10.3293259,10.3477802 C8.45770717,10.3477802 6.90124517,10.9599926 5.65951052,12.1844175 C4.41777587,13.4088423 3.79690854,14.9332638 3.79690854,16.7581035 C3.79690854,18.5711454 4.41777587,20.0896682 5.65951052,21.314093 M10.65307,6.5160805 C13.6522112,6.5160805 16.1262344,7.4847497 18.0759983,9.42082405 C20.0257621,11.3577411 21,13.80322 21,16.7581035 C21,19.6893917 20.0257621,22.1293931 18.0759983,24.0776864 C16.1262344,26.0259797 13.6522112,27.0001264 10.65307,27.0001264 C7.85744955,27.0001264 5.51266638,26.0997149 3.61743237,24.2980492 L3.09531988,26.522744 L0,26.522744 L0,0 L4.08501503,0 L4.08501503,8.79386461 C5.93215973,7.27534187 8.12151138,6.5160805 10.65307,6.5160805" id="Fill-1" fill="#EF5348" mask="url(#mask-2)"></path>
                </g>
                <g id="Group-6" transform="translate(23.000000, 7.000000)">
                    <mask id="mask-4" fill="white">
                        <use xlink:href="#path-3"></use>
                    </mask>
                    <g id="Clip-5"></g>
                    <path d="M10.0354117,3.71137838 C8.539269,3.71137838 7.26740019,4.14592757 6.2189621,5.01502595 C5.17094558,5.88369237 4.4816829,7.06682382 4.1520172,8.56312441 L15.9719236,8.56312441 C15.6064247,7.04220224 14.8969268,5.85388731 13.8430083,4.99645178 C12.7886683,4.13988016 11.5197504,3.71137838 10.0354117,3.71137838 M20,10.5544482 C20,10.9406182 19.9704903,11.3868302 19.9118924,11.8939483 L4.04620379,11.8939483 C4.29366384,13.5116289 4.95299524,14.7906549 6.02461954,15.7318902 C7.09624383,16.6735574 8.43345559,17.1439591 10.0354117,17.1439591 C11.1896632,17.1439591 12.2233464,16.8847846 13.1360398,16.3651398 C14.0487332,15.8467909 14.7645546,15.1284456 15.2830825,14.2114 L19.5232073,14.2114 C18.745837,16.3232399 17.5148603,17.9832524 15.830277,19.1897095 C14.1461153,20.3965986 12.2144935,21.0000432 10.0354117,21.0000432 C7.18477299,21.0000432 4.79954471,19.9953102 2.88014839,17.9854122 C0.959908941,15.9763781 0,13.4813919 0,10.5000216 C0,8.53331935 0.435900679,6.74674335 1.30770204,5.14158948 C2.17866026,3.53643561 3.38054888,2.27814357 4.91168163,1.36671336 C6.44281438,0.455715106 8.15058387,0 10.0354117,0 C11.9788373,0 13.7161165,0.473857318 15.2472493,1.42114 C16.7788036,2.36885463 17.9532903,3.64183323 18.7723958,5.24093969 C19.5906581,6.84047812 20,8.61107169 20,10.5544482" id="Fill-4" fill="#FF5043" mask="url(#mask-4)"></path>
                </g>
                <path d="M56.7308622,23.3756473 C55.5301101,23.3756473 54.6082729,23.0615815 53.96621,22.4338698 C53.3232877,21.806578 53.002686,20.9118265 53.002686,19.7504549 L53.002686,10.9717285 L56.5628257,10.9717285 L56.5628257,10.1974808 L49.6282031,3 L48.9259737,3 L48.9259737,7.54009797 L43,7.54009797 L43,10.9717285 L48.8898738,10.9717285 L48.8958904,10.9717285 L48.8958904,20.0674598 C48.8958904,22.213436 49.5263497,23.9059482 50.7868386,25.1437369 C52.0477572,26.3811057 53.7706688,27 55.956433,27 L59,27 L59,23.3756473 L56.7308622,23.3756473 Z" id="Fill-7" fill="#FF5043"></path>
                <path d="M64.9339901,22.1798173 C66.1535993,23.4290357 67.6877549,24.0532129 69.535609,24.0532129 C71.3830393,24.0532129 72.9138035,23.4290357 74.1279018,22.1798173 C75.3420001,20.930599 75.9494731,19.3647565 75.9494731,17.4818578 C75.9494731,15.5993911 75.3420001,14.0365723 74.1279018,12.7929694 C72.9138035,11.5502304 71.3830393,10.9282129 69.535609,10.9282129 C67.6877549,10.9282129 66.1535993,11.5528221 64.9339901,12.8020405 C63.713957,14.0516908 63.1039404,15.611054 63.1039404,17.4818578 C63.1039404,19.3647565 63.713957,20.930599 64.9339901,22.1798173 L64.9339901,22.1798173 Z M76.8905689,7.47083265 L80,7.48897482 L80,27.492883 L76.7485567,27.492883 L76.3577052,25.067015 C75.4577294,25.9961535 74.397513,26.717521 73.1774799,27.2306854 C71.9574468,27.7429858 70.6428802,28 69.2333562,28 C67.3147079,28 65.5736808,27.5442858 64.0102749,26.6328575 C62.4464452,25.7222931 61.2204772,24.460548 60.3323711,22.849782 C59.444265,21.238584 59,19.4494199 59,17.4818578 C59,15.5030648 59.444265,13.7134688 60.3323711,12.1143656 C61.2204772,10.5152625 62.4464452,9.2630204 64.0102749,8.35807142 C65.5736808,7.45269047 67.3147079,7 69.2333562,7 C70.6547499,7 71.9811862,7.25960589 73.2130889,7.77838572 C74.4449917,8.2975975 75.510719,9.03365147 76.4111187,9.9869796 L76.8905689,7.47083265 Z" id="Fill-9" fill="#FF5043"></path>
                <path d="M94.3528243,28 C92.9048195,28 91.5410261,27.7320685 90.2623078,27.1979454 C88.9835896,26.6633873 87.8853861,25.9309252 86.9685611,25.0014291 C86.0513042,24.0710632 85.3275177,22.9562768 84.7963379,21.6562002 C84.2655899,20.3561235 84,18.970361 84,17.4997825 C84,16.0174603 84.2655899,14.6260434 84.7963379,13.3255318 C85.3275177,12.0250202 86.0482812,10.9132785 86.9594921,9.98943684 C87.8702712,9.06646507 88.9684747,8.3370477 90.2536708,7.80205464 C91.538435,7.26749653 92.9048195,7 94.3528243,7 C96.6697184,7 98.6877699,7.62894306 100.406979,8.88682919 C102.126188,10.1447153 103.30558,11.8310308 103.945586,13.9453408 L101.448178,13.9453408 C100.820694,12.5482695 99.8788219,11.4508813 98.6242874,10.654916 C97.3693211,9.85895073 95.9459319,9.46096808 94.3528243,9.46096808 C92.1326654,9.46096808 90.2808775,10.2295313 88.7961651,11.7666577 C87.3123165,13.3042191 86.5703921,15.2154056 86.5703921,17.4997825 C86.5703921,19.7850293 87.3149076,21.6957809 88.8056659,23.2329074 C90.2955605,24.7700338 92.1451892,25.5390319 94.3528243,25.5390319 C95.9334082,25.5390319 97.3481603,25.1371347 98.5970807,24.3350801 C99.846001,23.5330254 100.796511,22.4099749 101.448178,20.9633189 L104,20.9633189 C103.348333,23.114165 102.150371,24.8248379 100.406979,26.0949028 C98.6635861,27.3645326 96.6451028,28 94.3528243,28" id="Fill-11" fill="#23293C"></path>
                <path d="M116.344802,8 L118,8 L118,10.3762376 L116.157091,10.3762376 C114.359379,10.3762376 112.946048,10.9827538 111.91669,12.1944975 C110.886925,13.4066708 110.372246,15.0269109 110.372246,17.0552179 L110.372246,28 L108,28 L108,8.0897747 L109.706503,8.0897747 L110.116536,11.5102339 C111.492406,9.17007796 113.569038,8 116.344802,8" id="Fill-13" fill="#23293C"></path>
                <path d="M129.52685,25.5390319 C131.813413,25.5390319 133.701559,24.7791678 135.18999,23.2603094 C136.677988,21.7410161 137.421987,19.8211305 137.421987,17.4997825 C137.421987,15.1788695 136.677988,13.2585489 135.18999,11.7392556 C133.701559,10.2203973 131.813413,9.46096808 129.52685,9.46096808 C127.252413,9.46096808 125.358636,10.2264866 123.846387,11.7575237 C122.333705,13.2889957 121.57758,15.2032269 121.57758,17.4997825 C121.57758,19.7967731 122.333705,21.7110043 123.846387,23.2416064 C125.358636,24.7730784 127.252413,25.5390319 129.52685,25.5390319 L129.52685,25.5390319 Z M137.966778,7.41929537 L140,7.41929537 L140,27.5802697 L137.893591,27.5802697 L137.604306,23.9710238 C136.671925,25.2349993 135.494865,26.2223442 134.073992,26.9330586 C132.650953,27.6442079 131.075909,28 129.346263,28 C127.893343,28 126.526169,27.7316336 125.243875,27.1979454 C123.961148,26.6629523 122.862905,25.9304903 121.949579,25.0014291 C121.03582,24.0710632 120.316073,22.9562768 119.78947,21.6562002 C119.263734,20.3556886 119,18.970361 119,17.4997825 C119,14.4986019 119.98608,11.9976181 121.958674,9.99857087 C123.930834,7.99952362 126.392786,7 129.346263,7 C131.075909,7 132.657449,7.35840186 134.090881,8.07520557 C135.526046,8.79244423 136.707436,9.78892318 137.64025,11.0650774 L137.966778,7.41929537 Z" id="Fill-15" fill="#23293C"></path>
                <g id="Group-19" transform="translate(143.000000, 0.000000)">
                    <mask id="mask-6" fill="white">
                        <use xlink:href="#path-5"></use>
                    </mask>
                    <g id="Clip-18"></g>
                    <path d="M23.5481682,25.6592553 L26,25.6592553 L26,28 L23.277559,28 C21.2215309,28 19.6017474,27.4046386 18.4177781,26.2126167 C17.234239,25.0210279 16.6418241,23.39082 16.6418241,21.3224261 L16.6418241,10.1802909 L6.56302743,10.1802909 L6.56302743,28 L4.05698779,28 L4.05698779,10.1802909 L0,10.1802909 L0,8.03915468 L4.05698779,8.03915468 L4.05698779,6.42410147 C4.05698779,4.19809917 4.56163749,2.57092224 5.57093689,1.54257066 C6.58066651,0.514219087 8.20991495,-0.000173196055 10.4573915,-0.000173196055 L12.9634312,-0.000173196055 L12.9634312,2.06865368 L10.9082636,2.06865368 C9.29708442,2.06865368 8.1587186,2.40162309 7.49144521,3.06669595 C6.82417182,3.73220179 6.49118046,4.86923389 6.49118046,6.47822524 L6.49118046,8.03915468 L16.6418241,8.03915468 L16.6418241,2.12321044 L19.1663633,2.12321044 L19.1663633,8.03915468 L25.9096535,8.03915468 L25.9096535,10.1802909 L19.1663633,10.1802909 L19.1663633,21.19556 C19.1663633,22.6105718 19.5453884,23.7082018 20.3021478,24.488883 C21.0597677,25.2695642 22.1417745,25.6592553 23.5481682,25.6592553" id="Fill-17" fill="#23293C" mask="url(#mask-6)"></path>
                </g>
                <g id="Group-22" transform="translate(171.000000, 7.000000)">
                    <mask id="mask-8" fill="white">
                        <use xlink:href="#path-7"></use>
                    </mask>
                    <g id="Clip-21"></g>
                    <path d="M4.17398244,2.77475613 C3.92081227,2.77475613 3.7173007,2.84791605 3.56344773,2.99423589 C3.40915137,3.14055572 3.33200319,3.32811114 3.33200319,3.55734555 C3.33200319,3.78657996 3.40915137,3.97058824 3.56344773,4.10892699 C3.7173007,4.24726574 3.92081227,4.31643512 4.17398244,4.31643512 L5.25317017,4.31643512 L5.25317017,2.77475613 L4.17398244,2.77475613 Z M3.04158908,2.50206917 C3.33022967,2.21741058 3.69158464,2.07508129 4.12654075,2.07508129 L6.01179392,2.07508129 L6.01179392,6.79456104 L5.25317017,6.79456104 L5.25317017,4.99216672 L4.33980669,4.99216672 L3.2845615,6.79456104 L2.50199521,6.79456104 L3.6046821,4.92122377 C3.30451361,4.83387526 3.06331471,4.67026308 2.88152878,4.42905705 C2.69974284,4.18785102 2.60884987,3.90141886 2.60884987,3.56931717 C2.60884987,3.14232929 2.75294848,2.78672776 3.04158908,2.50206917 L3.04158908,2.50206917 Z M8.26505276,4.48226426 C8.26505276,3.44649719 7.89926399,2.56547443 7.16812982,1.8378658 C6.43699565,1.11070056 5.54535781,0.747117943 4.49410304,0.747117943 C3.45836659,0.747117943 2.57337944,1.11070056 1.83825486,1.8378658 C1.10268688,2.56547443 0.73512459,3.44649719 0.73512459,4.48226426 C0.73512459,5.5335501 1.09869646,6.42521431 1.82628359,7.15637009 C2.55342733,7.88752586 3.44284828,8.25332545 4.49410304,8.25332545 C5.54535781,8.25332545 6.43699565,7.88752586 7.16812982,7.15637009 C7.89926399,6.42521431 8.26505276,5.5335501 8.26505276,4.48226426 L8.26505276,4.48226426 Z M9.00017735,4.48226426 C9.00017735,5.72332249 8.56123082,6.78657996 7.68378115,7.67203665 C6.80633147,8.55749335 5.74310544,9 4.49410304,9 C3.24510065,9 2.18409151,8.55926692 1.31018888,7.67824416 C0.436729627,6.79677801 0,5.73130358 0,4.48226426 C0,3.23322495 0.436729627,2.17395803 1.31018888,1.30446349 C2.18409151,0.434968962 3.24510065,0 4.49410304,0 C5.74310544,0 6.80633147,0.434968962 7.68378115,1.30446349 C8.56123082,2.17395803 9.00017735,3.23322495 9.00017735,4.48226426 L9.00017735,4.48226426 Z" id="Fill-20" fill="#23293C" mask="url(#mask-8)"></path>
                </g>
            </g>
        </g>
    </g>
</svg>