<?xml version="1.0" encoding="UTF-8"?>
<svg width="120px" height="120px" viewBox="0 0 120 120" version="1.1" xmlns="http://www.w3.org/2000/svg" xmlns:xlink="http://www.w3.org/1999/xlink">
    <title>Group 35</title>
    <defs>
        <linearGradient x1="50%" y1="100%" x2="50%" y2="-381.460623%" id="linearGradient-1">
            <stop stop-color="#F5F5F7" offset="0%"></stop>
            <stop stop-color="#FF5043" stop-opacity="0.496421547" offset="100%"></stop>
        </linearGradient>
        <polygon id="path-2" points="0 0 75 0 75 74.9947085 0 74.9947085"></polygon>
    </defs>
    <g id="Page-1" stroke="none" stroke-width="1" fill="none" fill-rule="evenodd">
        <g id="Group-35">
            <circle id="Oval-Copy-6" fill="url(#linearGradient-1)" opacity="0.5" cx="60" cy="60" r="60"></circle>
            <g id="Group-16" transform="translate(22.000000, 21.000000)">
                <g id="Group-3">
                    <mask id="mask-3" fill="white">
                        <use xlink:href="#path-2"></use>
                    </mask>
                    <g id="Clip-2"></g>
                    <path d="M68.7463716,72.4948597 L6.24939526,72.4948597 C4.17815675,72.4948597 2.5,70.8151911 2.5,68.7454644 L2.5,64.9945573 L72.4957668,64.9945573 L72.4957668,68.7454644 C72.4957668,70.816703 70.8176101,72.4948597 68.7463716,72.4948597 L68.7463716,72.4948597 Z M72.4957668,62.4954644 L2.5,62.4954644 L2.5,52.4960692 L72.4957668,52.4960692 L72.4957668,62.4954644 Z M6.24939526,22.4978834 L39.4058418,22.4978834 L42.0742622,25.2025883 C42.456761,25.6002056 42.6276004,26.1580793 42.5323537,26.7023464 L41.1399371,35.1430213 C40.8602443,36.7274432 41.5148766,38.333031 42.8256531,39.2673561 C44.0351355,40.1381834 45.6361877,40.2349419 46.9409168,39.5183237 L54.3338776,35.4771408 C54.7466134,35.248851 55.2485486,35.248851 55.6612845,35.4771408 L63.0527334,39.5183237 C64.3589744,40.2364538 65.9600266,40.1381834 67.169509,39.2673561 C68.4787736,38.333031 69.1349178,36.7274432 68.8537131,35.1430213 L67.4612966,26.7023464 C67.3660498,26.1580793 67.5368892,25.6002056 67.9208999,25.2025883 L70.2642719,22.8274673 C71.6234277,23.4201137 72.5003024,24.7641509 72.4957843,26.2472787 L72.4957843,49.9954644 L2.5,49.9954644 L2.5,26.2472787 C2.5,24.1760402 4.17815675,22.4978834 6.24939526,22.4978834 Z M37.5931301,15.7262941 C37.7564103,15.1714441 38.2235728,14.7571964 38.7950532,14.6634615 L46.9756894,13.4267658 C48.2940252,13.2181301 49.4218674,12.3669569 49.9842767,11.1574746 L53.671686,3.38806241 C53.8939284,2.85135462 54.4170295,2.50211659 54.997581,2.50211659 C55.5781326,2.50211659 56.1012337,2.85135462 56.3234761,3.38806241 L60.0108853,11.1574746 C60.5732946,12.3669569 61.6996251,13.2181301 63.0179608,13.4267658 L71.2001089,14.6634615 C71.7715893,14.7571964 72.2387518,15.1714441 72.4020319,15.7262941 C72.6136913,16.3431301 72.462506,17.0279995 72.010462,17.4981858 L66.1354015,23.4458152 C65.195029,24.4164248 64.7717102,25.7786043 64.9969763,27.1105467 L66.3893928,35.5527334 C66.5103411,36.1922472 66.2518142,36.8453677 65.7256894,37.2293783 C65.2963232,37.5468674 64.7203072,37.5816401 64.2546565,37.3200895 L56.8601838,33.2789066 C55.6990808,32.6424165 54.2945694,32.6424165 53.1349782,33.2789066 L45.7480648,37.3185776 C45.2824141,37.5816401 44.7063982,37.5468674 44.2770319,37.2293783 C43.7493953,36.8453677 43.4923803,36.1922472 43.6133285,35.5512216 L44.9981858,27.1105467 C45.2204282,25.7770924 44.7955975,24.4164248 43.8522013,23.4458152 L37.9847,17.4981858 C37.5296323,17.0264877 37.378447,16.3401064 37.5931301,15.7232704 L37.5931301,15.7262941 Z M72.0905902,20.9769594 L73.7899129,19.253447 C74.9086841,18.1165336 75.289671,16.4444243 74.7741292,14.9340832 C74.313014,13.4857281 73.0748065,12.4213836 71.5735365,12.1840227 L63.3913885,10.9488389 C62.8939889,10.8626633 62.4721819,10.5345912 62.2665699,10.0734761 L58.5806725,2.31313498 C57.9441824,0.90408805 56.5426947,0 54.997581,0 C53.4524673,0 52.0494678,0.90408805 51.4144896,2.31313498 L47.7255685,10.0810353 C47.5199565,10.5421505 47.0981495,10.8702225 46.6007499,10.9563982 L38.4186018,12.191582 C36.9173319,12.4289429 35.6791243,13.4932874 35.2180092,14.9416425 C34.7024673,16.4519836 35.0834543,18.122581 36.2022254,19.2610063 L36.9354741,20.0108853 L6.24939526,20.0108853 C2.79934688,20.0154209 0.00393081761,22.810837 -0.000604741171,26.2608853 L-0.000604741171,68.7454644 C0.00393081761,72.1955128 2.79934688,74.9909289 6.24939526,74.9954644 L68.7463716,74.9954644 C72.1964199,74.9909289 74.991836,72.1955128 74.9963716,68.7454644 L74.9963716,26.2472787 C75.0003979,24.1064949 73.9033019,22.1153846 72.0905902,20.9769594 Z" id="Fill-1" fill="#23293C" mask="url(#mask-3)"></path>
                </g>
                <path d="M54.9971275,43.7463716 C55.6880443,43.7463716 56.2474299,43.186986 56.2474299,42.4960692 L56.2474299,38.7466739 C56.2474299,38.0557571 55.6880443,37.4963716 54.9971275,37.4963716 C54.3062107,37.4963716 53.7468251,38.0557571 53.7468251,38.7466739 L53.7468251,42.4960692 C53.7468251,43.186986 54.3062107,43.7463716 54.9971275,43.7463716" id="Fill-4" fill="#23293C"></path>
                <path d="M54.9971275,48.7460692 C55.6880443,48.7460692 56.2474299,48.1866836 56.2474299,47.4957668 L56.2474299,46.2469763 C56.2474299,45.5560595 55.6880443,44.9966739 54.9971275,44.9966739 C54.3062107,44.9966739 53.7468251,45.5560595 53.7468251,46.2469763 L53.7468251,47.4957668 C53.7468251,48.1866836 54.3062107,48.7460692 54.9971275,48.7460692" id="Fill-6" fill="#23293C"></path>
                <path d="M59.9968251,46.2462204 C60.6877419,46.2462204 61.2471275,45.6868348 61.2471275,44.995918 L61.2471275,41.2465227 C61.2471275,40.555606 60.6877419,39.9962204 59.9968251,39.9962204 C59.3059083,39.9962204 58.7465227,40.555606 58.7465227,41.2465227 L58.7465227,44.995918 C58.7465227,45.6868348 59.3059083,46.2462204 59.9968251,46.2462204" id="Fill-8" fill="#23293C"></path>
                <path d="M49.9972787,46.2462204 C50.6881955,46.2462204 51.247581,45.6868348 51.247581,44.995918 L51.247581,41.2465227 C51.247581,40.555606 50.6881955,39.9962204 49.9972787,39.9962204 C49.3063619,39.9962204 48.7469763,40.555606 48.7469763,41.2465227 L48.7469763,44.995918 C48.7469763,45.6868348 49.3063619,46.2462204 49.9972787,46.2462204" id="Fill-10" fill="#23293C"></path>
                <path d="M9.99954644,31.2469763 C9.99954644,30.5560595 10.558932,29.9966739 11.2498488,29.9966739 L23.748337,29.9966739 C24.4392537,29.9966739 24.9986393,30.5560595 24.9986393,31.2469763 L24.9986393,38.7472787 C24.9986393,39.4366836 24.4392537,39.9960692 23.748337,39.9960692 L11.2498488,39.9960692 C10.558932,39.9960692 9.99954644,39.4366836 9.99954644,38.7472787 L9.99954644,31.2469763 Z M11.2498488,42.4966739 L23.748337,42.4966739 C25.8195755,42.4966739 27.4992441,40.8170053 27.4992441,38.7472787 L27.4992441,31.2469763 C27.4992441,29.1757378 25.8195755,27.497581 23.748337,27.497581 L11.2498488,27.497581 C9.1786103,27.497581 7.4989417,29.1757378 7.4989417,31.2469763 L7.4989417,38.7472787 C7.4989417,40.8170053 9.1786103,42.4966739 11.2498488,42.4966739 L11.2498488,42.4966739 Z" id="Fill-12" fill="#23293C"></path>
                <path d="M37.5931301,15.6714139 C37.7564103,15.115052 38.2235728,14.7023162 38.7950532,14.6070694 L46.9756894,13.3718856 C48.2940252,13.1632499 49.4218674,12.3120767 49.9842767,11.1010825 L53.671686,3.3316703 C53.8939284,2.79647436 54.4170295,2.44723633 54.997581,2.44723633 C55.5781326,2.44723633 56.1012337,2.79647436 56.3234761,3.3316703 L60.0108853,11.1010825 C60.5732946,12.3120767 61.6996251,13.1632499 63.0179608,13.3718856 L71.2001089,14.6070694 C71.7715893,14.7023162 72.2387518,15.115052 72.4020319,15.6714139 C72.6136913,16.2882499 72.462506,16.9731193 72.010462,17.4433055 L66.1354015,23.3909349 C65.195029,24.3615445 64.7717102,25.7222121 64.9969763,27.0556664 L66.3893928,35.4963413 C66.5103411,36.137367 66.2518142,36.7904874 65.7256894,37.1744981 C65.2963232,37.4919872 64.7203072,37.5267598 64.2546565,37.2636974 L56.8601838,33.2225145 C55.6990808,32.5875363 54.2945694,32.5875363 53.1349782,33.2225145 L45.7480648,37.2636974 C45.2824141,37.5267598 44.7063982,37.4919872 44.2770319,37.1744981 C43.7493953,36.7904874 43.4923803,36.137367 43.6133285,35.4963413 L44.9981858,27.0556664 C45.2204282,25.7207003 44.7955975,24.3600327 43.8522013,23.3909349 L37.9847,17.4417937 C37.5296323,16.9716074 37.378447,16.2852262 37.5931301,15.6668783 L37.5931301,15.6714139 Z" id="Fill-14" fill="#FF5043"></path>
            </g>
        </g>
    </g>
</svg>