<?xml version="1.0" encoding="UTF-8"?>
<svg width="120px" height="120px" viewBox="0 0 120 120" version="1.1" xmlns="http://www.w3.org/2000/svg" xmlns:xlink="http://www.w3.org/1999/xlink">
    <title>Group 32</title>
    <defs>
        <linearGradient x1="50%" y1="100%" x2="50%" y2="-381.460623%" id="linearGradient-1">
            <stop stop-color="#F5F5F7" offset="0%"></stop>
            <stop stop-color="#FF5043" stop-opacity="0.496421547" offset="100%"></stop>
        </linearGradient>
        <polygon id="path-2" points="0 0 6.04654379 0 6.04654379 3.07554618 0 3.07554618"></polygon>
    </defs>
    <g id="Page-1" stroke="none" stroke-width="1" fill="none" fill-rule="evenodd">
        <g id="Apple-TV" transform="translate(-730.000000, -3558.000000)">
            <g id="Group-32" transform="translate(730.000000, 3558.000000)">
                <circle id="Oval-Copy-3" fill="url(#linearGradient-1)" opacity="0.5" cx="60" cy="60" r="60"></circle>
                <g id="Group-64" transform="translate(15.000000, 15.000000)">
                    <path d="M16.4996448,41.9999682 C23.9526249,42.0079206 29.9916765,48.0469508 29.9996289,55.4999125 C29.9996289,61.3194573 21.1327043,74.0448408 16.4996448,80.0679663 C11.8665694,74.0480217 2.99964479,61.3226383 2.99964479,55.4999125 C3.00759719,48.0469508 9.04664877,42.0079206 16.4996448,41.9999682 M16.4996368,83.9996183 C16.954514,83.9996183 17.3855341,83.7928567 17.6686395,83.4381809 C18.3000599,82.6572581 32.9992737,64.2125298 32.9992737,55.4999125 C32.9992737,46.3864958 25.6130858,39.000334 16.4996368,39.000334 C7.38618792,39.000334 0,46.3864958 0,55.4999125 C0,64.2125298 14.6992138,82.6508962 15.3306342,83.4381809 C15.6137396,83.7928567 16.0447596,83.9996183 16.4996368,83.9996183" id="Fill-1" fill="#000000"></path>
                    <path d="M13.4995149,53.9999364 C13.4995149,52.3426623 14.8434703,51.0003022 16.4991597,51.0003022 C18.1564396,51.0003022 19.4988045,52.3426623 19.4988045,53.9999364 C19.4988045,55.6572104 18.1564396,56.9995706 16.4991597,56.9995706 C14.8434703,56.9995706 13.4995149,55.6572104 13.4995149,53.9999364 M22.5000398,53.9999364 C22.5000398,50.6869788 19.8137195,48.000668 16.4991597,48.000668 C13.1861904,48.000668 10.4998701,50.6869788 10.4998701,53.9999364 C10.4998701,57.312894 13.1861904,59.9992048 16.4991597,59.9992048 C19.8137195,59.9992048 22.5000398,57.312894 22.5000398,53.9999364" id="Fill-3" fill="#000000"></path>
                    <path d="M77.9998303,0 C71.3723013,0 65.9996607,5.37262158 65.9996607,12.0001272 C65.9996607,18.1775287 75.7493015,29.6861995 76.8626373,30.9776644 C77.1473332,31.3100735 77.5624484,31.49934 77.9998303,31.49934 C78.4372123,31.49934 78.8523275,31.3100735 79.1370234,30.9776644 C80.2503592,29.6861995 90,18.1775287 90,12.0001272 C90,5.37262158 84.6273594,0 77.9998303,0" id="Fill-5" fill="#FF5043"></path>
                    <path d="M76.4998489,10.499992 C76.4998489,9.67135503 77.1710314,9.00017495 77.9996713,9.00017495 C78.8283112,9.00017495 79.4994937,9.67135503 79.4994937,10.499992 C79.4994937,11.3286291 78.8283112,11.9998091 77.9996713,11.9998091 C77.1710314,11.9998091 76.4998489,11.3286291 76.4998489,10.499992 M82.4991385,10.499992 C82.4991385,8.01567147 80.4855911,6.00054076 77.9996713,6.00054076 C75.5153419,6.00054076 73.5002041,8.01567147 73.5002041,10.499992 C73.5002041,12.9843126 75.5153419,14.9994433 77.9996713,14.9994433 C80.4855911,14.9994433 82.4991385,12.9843126 82.4991385,10.499992" id="Fill-7" fill="#FFFFFF"></path>
                    <path d="M76.4998489,37.5000398 L77.9996713,37.5000398 C78.8283112,37.5000398 79.4994937,36.8288597 79.4994937,36.0002227 C79.4994937,35.1715856 78.8283112,34.5004056 77.9996713,34.5004056 L76.4998489,34.5004056 C75.671209,34.5004056 75.0000265,35.1715856 75.0000265,36.0002227 C75.0000265,36.8288597 75.671209,37.5000398 76.4998489,37.5000398" id="Fill-9" fill="#23293C"></path>
                    <path d="M56.999772,46.5000557 L60.0328169,46.5000557 C60.8614568,46.5000557 61.5326393,45.8288756 61.5326393,45.0002386 C61.5326393,44.1716016 60.8614568,43.5004215 60.0328169,43.5004215 L56.9759148,43.5004215 C56.5798854,43.5004215 56.1997607,43.6594689 55.9198363,43.9409828 C55.6415023,44.2224967 55.4856353,44.6042105 55.4887685,45.0002386 C55.4935877,45.8304661 56.1695416,46.5000557 56.999772,46.5000557" id="Fill-11" fill="#23293C"></path>
                    <path d="M73.8162324,44.9999205 C73.8162324,45.8285575 74.4874149,46.4997376 75.3160548,46.4997376 L78.3713664,46.4997376 C79.2000064,46.4997376 79.8711888,45.8285575 79.8711888,44.9999205 C79.8711888,44.1712835 79.2000064,43.5001034 78.3713664,43.5001034 L75.3160548,43.5001034 C74.4874149,43.5001034 73.8162324,44.1712835 73.8162324,44.9999205" id="Fill-13" fill="#23293C"></path>
                    <path d="M67.3305741,37.5000398 L70.3874762,37.5000398 C71.2161162,37.5000398 71.8872986,36.8288597 71.8872986,36.0002227 C71.8872986,35.1715856 71.2161162,34.5004056 70.3874762,34.5004056 L67.3305741,34.5004056 C66.5019342,34.5004056 65.8307517,35.1715856 65.8307517,36.0002227 C65.8307517,36.8288597 66.5019342,37.5000398 67.3305741,37.5000398" id="Fill-15" fill="#23293C"></path>
                    <path d="M27.3218972,87.0000477 L24.2649951,87.0000477 C23.4363552,87.0000477 22.7651727,87.6712278 22.7651727,88.4998648 C22.7651727,89.3285018 23.4363552,89.9996819 24.2649951,89.9996819 L27.3218972,89.9996819 C28.1505371,89.9996819 28.8217196,89.3285018 28.8217196,88.4998648 C28.8217196,87.6712278 28.1505371,87.0000477 27.3218972,87.0000477" id="Fill-17" fill="#000000"></path>
                    <path d="M52.5941431,42.9302365 C52.6991148,42.9302365 52.802496,42.9191032 52.9042867,42.8968365 C53.7154314,42.7266558 54.2339278,41.9330092 54.0637464,41.1218674 C54.022394,40.9182867 54.0001272,40.7099346 54.0001272,40.499992 C53.9985368,40.0260308 54.1114608,39.5584314 54.3261756,39.1353653 C54.7015288,38.3957948 54.4088805,37.493996 53.6693075,37.1170536 C52.9313249,36.7417017 52.0279324,37.0359394 51.6525791,37.7739194 C51.0307016,38.9954035 50.8462059,40.3934303 51.1293113,41.7342 C51.2724545,42.4292372 51.8847892,42.928646 52.5941431,42.9302365" id="Fill-19" fill="#23293C"></path>
                    <path d="M66.149961,46.5000557 L69.2068631,46.5000557 C70.035503,46.5000557 70.7066855,45.8288756 70.7066855,45.0002386 C70.7066855,44.1716016 70.035503,43.5004215 69.2068631,43.5004215 L66.149961,43.5004215 C65.3213211,43.5004215 64.6501386,44.1716016 64.6501386,45.0002386 C64.6501386,45.8288756 65.3213211,46.5000557 66.149961,46.5000557" id="Fill-21" fill="#23293C"></path>
                    <path d="M58.1606632,37.5000398 L61.2175653,37.5000398 C62.0462052,37.5000398 62.7173877,36.8288597 62.7173877,36.0002227 C62.7173877,35.1715856 62.0462052,34.5004056 61.2175653,34.5004056 L58.1606632,34.5004056 C57.3320232,34.5004056 56.6608408,35.1715856 56.6608408,36.0002227 C56.6608408,36.8288597 57.3320232,37.5000398 58.1606632,37.5000398" id="Fill-23" fill="#23293C"></path>
                    <path d="M43.3378691,63.5653658 C43.4571551,63.5955848 43.5796221,63.6114896 43.702089,63.6114896 C44.3907667,63.6098991 44.9887871,63.1407092 45.1557875,62.4727101 C45.349826,61.7013302 45.7156364,60.9840263 46.2245899,60.3732843 C46.5856288,59.9645324 46.6953719,59.3935522 46.5140572,58.8814196 C46.3327425,58.3676964 45.8858177,57.9923445 45.349826,57.9016875 C44.8122439,57.8126209 44.2682998,58.0193826 43.9295276,58.4440392 C43.1247449,59.4030951 42.5505817,60.5307412 42.2452096,61.744273 C42.1481903,62.1307582 42.2086285,62.53951 42.4138004,62.881462 C42.6189723,63.2234139 42.9513826,63.4699374 43.3378691,63.5653658" id="Fill-25" fill="#23293C"></path>
                    <g id="Group-29" transform="translate(68.612183, 86.924454)">
                        <mask id="mask-3" fill="white">
                            <use xlink:href="#path-2"></use>
                        </mask>
                        <g id="Clip-28"></g>
                        <path d="M4.35950497,0.012611119 C4.03663758,0.0555539202 3.71217972,0.0762300838 3.38772185,0.0762300838 L1.4998224,0.0762300838 C0.669591971,0.0762300838 0,0.747410163 0,1.57604718 C0,2.4046842 0.669591971,3.07586427 1.4998224,3.07586427 L3.38772185,3.07586427 C3.8394181,3.07586427 4.28952386,3.04564527 4.73803915,2.9883882 C5.5587267,2.88182643 6.1392518,2.12953217 6.03428014,1.30884753 C5.927718,0.486572407 5.17542108,-0.0939506471 4.35314305,0.012611119 L4.35950497,0.012611119 Z" id="Fill-27" fill="#23293C" mask="url(#mask-3)"></path>
                    </g>
                    <path d="M75.06126,69.4496429 C74.0688006,69.1490433 73.0365793,68.9979483 71.9995865,68.9995263 L71.606738,68.9995263 C70.778098,68.9995263 70.1069156,69.6723093 70.1069156,70.4993559 C70.1069156,71.3279929 70.778098,71.999173 71.606738,71.999173 L71.9995865,71.999173 C72.74075,71.999173 73.4787326,72.1089157 74.1880866,72.3236297 C74.3296393,72.3681629 74.4775539,72.3888426 74.6254685,72.3888426 C75.3682226,72.3904296 75.999643,71.8464874 76.1093861,71.1100979 C76.2191292,70.3752989 75.7737949,69.6707188 75.06126,69.4544144 L75.06126,69.4496429 Z" id="Fill-30" fill="#23293C"></path>
                    <path d="M71.862169,58.5000239 C72.690809,58.5000239 73.3619914,57.8288438 73.3619914,57.0002068 C73.3619914,56.1715697 72.690809,55.5003897 71.862169,55.5003897 L68.8068574,55.5003897 C67.9782175,55.5003897 67.307035,56.1715697 67.307035,57.0002068 C67.307035,57.8288438 67.9782175,58.5000239 68.8068574,58.5000239 L71.862169,58.5000239 Z" id="Fill-32" fill="#23293C"></path>
                    <path d="M80.8254767,81.8232135 C80.0715893,81.482852 79.1841016,81.8184421 78.8421484,82.5739173 C78.4938334,83.3484782 78.0135085,84.0594201 77.425031,84.6733431 C77.0401349,85.0582379 76.8938107,85.6212657 77.0417254,86.1445317 C77.1912304,86.6677977 77.6111171,87.0701876 78.1407469,87.1942446 C78.6703766,87.3198921 79.225454,87.1481209 79.5928549,86.7473214 C80.4167234,85.8868749 81.0894963,84.8912381 81.5793641,83.8049443 C81.9181362,83.049469 81.5809545,82.163575 80.8254767,81.8232135" id="Fill-34" fill="#23293C"></path>
                    <path d="M88.6814923,51.2636847 C88.2997772,51.150761 87.8894334,51.1937038 87.5395278,51.3845607 C87.1896223,51.5754176 86.9287836,51.8966934 86.81745,52.2784072 C86.5963734,53.0132062 86.193982,53.6812054 85.6452665,54.2187856 C85.053608,54.7993087 85.0424746,55.7488217 85.6229998,56.3420686 C86.2035249,56.9337249 87.1530413,56.9432678 87.7446997,56.3643352 C88.6592256,55.4688983 89.330408,54.3555664 89.6946279,53.1277204 C89.8091424,52.7475971 89.764609,52.3356643 89.5753419,51.98576 C89.3844843,51.6358556 89.0632074,51.3766084 88.6814923,51.2636847" id="Fill-36" fill="#23293C"></path>
                    <path d="M86.969818,48.4951464 C87.5630669,48.4951464 88.0990586,48.1468326 88.3408115,47.6060714 C88.5825645,47.0669006 88.4823642,46.4338919 88.0879253,45.9933306 C87.2306567,45.0406366 86.14754,44.3217423 84.9371849,43.9050381 C84.1530784,43.636248 83.3005812,44.0529522 83.0301997,44.8370559 C82.7614086,45.6211597 83.1781143,46.4736538 83.9622208,46.7424439 C84.68907,46.9921484 85.3395763,47.4247573 85.8517107,47.997328 C86.1364066,48.3138324 86.5435694,48.4951464 86.969818,48.4951464" id="Fill-38" fill="#23293C"></path>
                    <path d="M65.4943653,69.0000159 L62.4390537,69.0000159 C61.6104138,69.0000159 60.9392313,69.671196 60.9392313,70.499833 C60.9392313,71.32847 61.6104138,71.9996501 62.4390537,71.9996501 L65.4943653,71.9996501 C66.3230052,71.9996501 66.9941877,71.32847 66.9941877,70.499833 C66.9941877,69.671196 66.3230052,69.0000159 65.4943653,69.0000159" id="Fill-40" fill="#23293C"></path>
                    <path d="M81.0312847,55.4999125 L77.9743827,55.4999125 C77.1457427,55.4999125 76.4745603,56.1710926 76.4745603,56.9997296 C76.4745603,57.8283666 77.1457427,58.4995467 77.9743827,58.4995467 L81.0312847,58.4995467 C81.8599247,58.4995467 82.5311071,57.8283666 82.5311071,56.9997296 C82.5311071,56.1710926 81.8599247,55.4999125 81.0312847,55.4999125" id="Fill-42" fill="#23293C"></path>
                    <path d="M36.4903767,87.0000477 L33.4350651,87.0000477 C32.6064252,87.0000477 31.9352427,87.6712278 31.9352427,88.4998648 C31.9352427,89.3285018 32.6064252,89.9996819 33.4350651,89.9996819 L36.4903767,89.9996819 C37.3190167,89.9996819 37.9901991,89.3285018 37.9901991,88.4998648 C37.9901991,87.6712278 37.3190167,87.0000477 36.4903767,87.0000477" id="Fill-44" fill="#000000"></path>
                    <path d="M80.6893316,73.6047566 C80.2217305,72.9192622 79.2865285,72.7443101 78.6010317,73.2119095 C77.9171254,73.6795089 77.7405822,74.6147076 78.2081832,75.300202 C78.6869176,76.0016011 79.0431851,76.7809334 79.2578998,77.601618 C79.3755953,78.1391983 79.7763962,78.5686263 80.3044355,78.7229023 C80.8324748,78.8771783 81.4018665,78.7292642 81.7883531,78.339598 C82.1748397,77.9499319 82.3179828,77.3789517 82.1605254,76.8525047 C81.8599247,75.6930491 81.363695,74.595622 80.6893316,73.6047566" id="Fill-46" fill="#23293C"></path>
                    <path d="M47.9279937,68.4616404 C47.2154588,68.1069647 46.5919907,67.5964225 46.1021229,66.9681852 C45.5931694,66.3145004 44.6516054,66.1968053 43.9963278,66.7041665 C43.3426406,67.2115278 43.2249451,68.1546789 43.7323081,68.8099542 C44.5005098,69.7960482 45.4802454,70.5960567 46.5999431,71.1511322 C47.3395162,71.496265 48.2190515,71.1877131 48.5800904,70.4545045 C48.9411293,69.7244769 48.651662,68.8385828 47.9279937,68.4616404" id="Fill-48" fill="#23293C"></path>
                    <path d="M45.6596515,87.0000477 L42.5995684,87.0000477 C41.7709285,87.0000477 41.0997461,87.6712278 41.0997461,88.4998648 C41.0997461,89.3285018 41.7709285,89.9996819 42.5995684,89.9996819 L45.6596515,89.9996819 C46.4882914,89.9996819 47.1594739,89.3285018 47.1594739,88.4998648 C47.1594739,87.6712278 46.4882914,87.0000477 45.6596515,87.0000477" id="Fill-50" fill="#23293C"></path>
                    <path d="M63.9988372,87.0000477 L60.9435256,87.0000477 C60.1148857,87.0000477 59.4437032,87.6712278 59.4437032,88.4998648 C59.4437032,89.3285018 60.1148857,89.9996819 60.9435256,89.9996819 L63.9988372,89.9996819 C64.8274771,89.9996819 65.4986596,89.3285018 65.4986596,88.4998648 C65.4986596,87.6712278 64.8274771,87.0000477 63.9988372,87.0000477" id="Fill-52" fill="#23293C"></path>
                    <path d="M53.5244147,58.5000239 C54.3530547,58.5000239 55.0242371,57.8288438 55.0242371,57.0002068 C55.0242371,56.1715697 54.3530547,55.5003897 53.5244147,55.5003897 L50.4691032,55.5003897 C49.6404632,55.5003897 48.9692808,56.1715697 48.9692808,57.0002068 C48.9692808,57.8288438 49.6404632,58.5000239 50.4691032,58.5000239 L53.5244147,58.5000239 Z" id="Fill-54" fill="#23293C"></path>
                    <path d="M62.6994152,58.5000239 C63.5280552,58.5000239 64.1992376,57.8288438 64.1992376,57.0002068 C64.1992376,56.1715697 63.5280552,55.5003897 62.6994152,55.5003897 L59.6361513,55.5003897 C58.8075113,55.5003897 58.1363289,56.1715697 58.1363289,57.0002068 C58.1363289,57.8288438 58.8075113,58.5000239 59.6361513,58.5000239 L62.6994152,58.5000239 Z" id="Fill-56" fill="#23293C"></path>
                    <path d="M56.3258858,69.0000159 L53.2689837,69.0000159 C52.4403438,69.0000159 51.7691613,69.671196 51.7691613,70.499833 C51.7691613,71.32847 52.4403438,71.9996501 53.2689837,71.9996501 L56.3258858,71.9996501 C57.1545257,71.9996501 57.8257082,71.32847 57.8257082,70.499833 C57.8257082,69.671196 57.1545257,69.0000159 56.3258858,69.0000159" id="Fill-58" fill="#23293C"></path>
                    <path d="M54.8309939,87.0000477 L51.7740918,87.0000477 C50.9454518,87.0000477 50.2742694,87.6712278 50.2742694,88.4998648 C50.2742694,89.3285018 50.9454518,89.9996819 51.7740918,89.9996819 L54.8309939,89.9996819 C55.6596338,89.9996819 56.3308163,89.3285018 56.3308163,88.4998648 C56.3308163,87.6712278 55.6596338,87.0000477 54.8309939,87.0000477" id="Fill-60" fill="#23293C"></path>
                    <path d="M17.9996183,87.0000477 L16.4997959,87.0000477 C15.6711559,87.0000477 14.9999735,87.6712278 14.9999735,88.4998648 C14.9999735,89.3285018 15.6711559,89.9996819 16.4997959,89.9996819 L17.9996183,89.9996819 C18.8282582,89.9996819 19.4994407,89.3285018 19.4994407,88.4998648 C19.4994407,87.6712278 18.8282582,87.0000477 17.9996183,87.0000477" id="Fill-62" fill="#000000"></path>
                </g>
            </g>
        </g>
    </g>
</svg>